<?xml version="1.0" standalone="no"?>
<!DOCTYPE svg PUBLIC "-//W3C//DTD SVG 1.1//EN" "http://www.w3.org/Graphics/SVG/1.1/DTD/svg11.dtd" >
<svg xmlns="http://www.w3.org/2000/svg">
<metadata>Generated by IcoMoon</metadata>
<defs>
<font id="icomoon" horiz-adv-x="1024">
<font-face units-per-em="1024" ascent="960" descent="-64" />
<missing-glyph horiz-adv-x="1024" />
<glyph unicode="&#x20;" horiz-adv-x="512" d="" />
<glyph unicode="&#xe900;" glyph-name="plus" d="M1024 505.6v-115.2h-454.4v-454.4h-115.2v454.4h-454.4v115.2h454.4v454.4h115.2v-454.4z" />
<glyph unicode="&#xe901;" glyph-name="close" d="M504.889 344.889l408.889-408.889 96 96-408.889 408.889 423.111 423.111-96 96-423.111-423.111-408.889 408.889-96-97.778 408.889-408.889-394.667-391.111 96-96 394.667 392.889z" />
<glyph unicode="&#xe902;" glyph-name="accordion" d="M508.8 160l-508.8 505.6 70.4 70.4 438.4-438.4 444.8 438.4 70.4-70.4z" />
<glyph unicode="&#xe903;" glyph-name="icona-per-ricerca-chiusa" d="M508.8 150.4l-508.8 508.8 128 128 380.8-384 390.4 384 124.8-128z" />
<glyph unicode="&#xe904;" glyph-name="arrow" d="M57.984 366.336v0h684.8l-214.4-214.4c-22.4-22.4-22.4-57.6 0-80l32-32c22.4-22.4 57.6-22.4 80 0l368 368c22.4 22.4 22.4 57.6 0 80l-368 368c-22.4 22.4-57.6 22.4-80 0l-32-32c-9.6-9.6-16-25.6-16-38.4 0-16 6.4-28.8 16-38.4l217.6-217.6h-688c-32 0-57.6-25.6-57.6-57.6v-48c0-32 25.6-57.6 57.6-57.6z" />
<glyph unicode="&#xe905;" glyph-name="meno" d="M0 540.8v-147.2h1024v147.2h-1024z" />
<glyph unicode="&#xe906;" glyph-name="doc-spalla-dx" d="M841.6 416v460.8h-688v-857.6h316.8c22.4 0 41.6-16 41.6-38.4s-16-44.8-38.4-44.8c0 0-3.2 0-3.2 0h-358.4c-22.4 0-41.6 19.2-41.6 41.6v940.8c3.2 22.4 19.2 41.6 41.6 41.6h771.2c22.4 0 41.6-19.2 41.6-41.6v-502.4c0-22.4-16-41.6-38.4-41.6-25.6 0-44.8 16-44.8 41.6 0 0 0 0 0 0v0zM691.2 720h-371.2c-22.4 0-41.6-16-41.6-38.4s16-41.6 38.4-41.6c0 0 3.2 0 3.2 0h371.2c22.4 0 41.6 16 41.6 38.4s-16 41.6-41.6 41.6c0 0 0 0 0 0zM732.8 451.2c0 22.4-19.2 41.6-41.6 41.6h-371.2c-22.4 0-41.6-16-41.6-38.4s16-41.6 38.4-41.6c0 0 3.2 0 3.2 0h371.2c22.4-3.2 41.6 16 41.6 38.4v0zM320 272c-22.4 0-41.6-16-41.6-38.4s16-41.6 38.4-41.6c0 0 3.2 0 3.2 0h108.8c22.4 0 41.6 16 41.6 38.4s-16 41.6-38.4 41.6c0 0-3.2 0-3.2 0h-108.8z" />
<glyph unicode="&#xe907;" glyph-name="prodotti-action-bar" d="M803.2-64h-582.4c-80 0-147.2 67.2-147.2 147.2v729.6c0 80 64 147.2 147.2 147.2h585.6c80 0 147.2-67.2 147.2-147.2v-732.8c-3.2-76.8-67.2-144-150.4-144zM220.8 902.4c-48 0-86.4-38.4-86.4-86.4v-732.8c0-48 38.4-86.4 86.4-86.4h585.6c48 0 86.4 38.4 86.4 86.4v729.6c0 48-38.4 86.4-86.4 86.4h-585.6zM220.8 745.6h585.6v-57.6h-585.6v57.6zM220.8 480h585.6v-57.6h-585.6v57.6zM220.8 217.6h585.6v-57.6h-585.6v57.6z" />
<glyph unicode="&#xe908;" glyph-name="doc" d="M928 918.4c0 22.4-19.2 41.6-41.6 41.6 0 0 0 0 0 0h-748.8c-22.4 0-41.6-19.2-41.6-41.6v-940.8c0-22.4 19.2-41.6 41.6-41.6 0 0 0 0 0 0h752c22.4 0 41.6 19.2 41.6 41.6v0l-3.2 940.8zM176 876.8h668.8v-860.8h-668.8v860.8zM697.6 720h-371.2c-22.4 0-38.4-16-38.4-38.4 0-25.6 16-41.6 38.4-41.6 0 0 0 0 0 0h368c22.4 0 41.6 19.2 41.6 41.6s-16 38.4-38.4 38.4c0 0 0 0 0 0v0zM697.6 502.4h-371.2c-22.4 0-41.6-19.2-41.6-41.6s19.2-41.6 41.6-41.6c0 0 0 0 0 0h368c22.4 0 41.6 19.2 41.6 41.6s-16 41.6-38.4 41.6c0 0 0 0 0 0v0zM697.6 272h-371.2c-22.4 0-41.6-19.2-41.6-41.6s19.2-41.6 41.6-41.6h368c22.4 0 41.6 19.2 41.6 41.6s-16 41.6-38.4 41.6v0z" />
<glyph unicode="&#xe909;" glyph-name="alert-per-icona-non-completa-spalla-dx" d="M563.2 278.4h-102.4v313.6h102.4v-313.6zM563.2 96h-102.4v108.8h102.4v-108.8zM483.2 880l-476.8-825.6c-9.6-16-6.4-38.4 12.8-48 3.2-6.4 12.8-6.4 19.2-6.4h947.2c19.2 0 38.4 12.8 38.4 32 0 6.4 0 16-6.4 22.4-156.8 275.2-316.8 547.2-473.6 825.6-12.8 16-35.2 22.4-54.4 9.6-3.2-3.2-6.4-6.4-6.4-9.6v0z" />
<glyph unicode="&#xe90a;" glyph-name="check-per-icona-doc-spalla-dx" d="M995.2 816c-35.2 32-92.8 28.8-124.8-6.4 0 0 0 0 0 0l-480-534.4-240 233.6c-35.2 32-89.6 32-124.8-3.2-32-35.2-32-89.6 3.2-124.8v0l307.2-294.4c16-16 38.4-25.6 60.8-25.6h3.2c22.4 0 44.8 12.8 60.8 28.8l540.8 601.6c32 35.2 28.8 89.6-6.4 124.8 0 0 0 0 0 0z" />
<glyph unicode="&#xe90b;" glyph-name="check-per-bottone-outline" d="M377.6 41.6l-377.6 377.6 144 144 230.4-230.4 502.4 521.6 147.2-140.8z" />
<glyph unicode="&#xe90c;" glyph-name="check-codice-fiscale-success" d="M358.4 89.6l-358.4 358.4 28.8 25.6 329.6-329.6 636.8 662.4 28.8-28.8z" />
<glyph unicode="&#xe90d;" glyph-name="calendar" d="M921.6 782.944v-745.6h-819.2v745.6h819.2zM924.8 885.344h-825.6c-54.4 0-99.2-44.8-99.2-99.2v-752c0-54.4 44.8-99.2 99.2-99.2h825.6c54.4 0 99.2 44.8 99.2 99.2v752c0 54.4-44.8 99.2-99.2 99.2zM316.256 720v0c-38.4 0-67.2 32-67.2 67.2v105.6c0 35.2 32 67.2 67.2 67.2v0c38.4 0 70.4-32 70.4-67.2v-102.4c0-38.4-32-70.4-70.4-70.4zM706.656 892.8v0 0 0zM706.656 960v0c-38.4 0-67.2-32-67.2-67.2v-102.4c0-38.4 32-67.2 67.2-67.2v0c38.4 0 67.2 32 67.2 67.2v102.4c0 35.2-28.8 67.2-67.2 67.2zM240 646.4h118.4v-118.4h-118.4v118.4zM451.2 646.4h118.4v-118.4h-118.4v118.4zM665.6 646.4h118.4v-118.4h-118.4v118.4zM240 441.6h118.4v-118.4h-118.4v118.4zM451.2 441.6h118.4v-118.4h-118.4v118.4zM665.6 441.6h118.4v-118.4h-118.4v118.4zM240 236.8h118.4v-118.4h-118.4v118.4zM451.2 236.8h118.4v-118.4h-118.4v118.4z" />
<glyph unicode="&#xe90e;" glyph-name="cerca" d="M432 92.8c-236.8 0-432 195.2-432 435.2s195.2 432 432 432 432-195.2 432-432-192-435.2-432-435.2zM432 860.8c-182.4 0-332.8-150.4-332.8-332.8 0-185.6 150.4-336 332.8-336 185.6 0 336 150.4 336 336 0 182.4-150.4 332.8-336 332.8zM680.722 208.779l70.144 70.144 271.526-271.526-70.144-70.144-271.526 271.526z" />
<glyph unicode="&#xe90f;" glyph-name="in-compilazione" d="M128 575.68c-70.4 0-128-57.6-128-128s57.6-128 128-128c70.4 0 128 57.6 128 128 0 0 0 0 0 0-3.2 70.4-57.6 128-128 128 0 0 0 0 0 0zM518.4 575.68c-70.4 0-128-57.6-128-128s57.6-128 128-128 128 57.6 128 128c0 0 0 0 0 0 0 70.4-57.6 128-128 128v0zM896 575.68c-70.4 0-128-57.6-128-128s57.6-128 128-128c70.4 0 128 57.6 128 128 0 0 0 0 0 0 0 70.4-57.6 128-128 128v0z" />
<glyph unicode="&#xe910;" glyph-name="password" d="M787.2 579.2h-9.6v115.2c0 147.2-118.4 265.6-265.6 265.6s-265.6-118.4-265.6-265.6v-115.2h-12.8c-57.6 0-102.4-44.8-102.4-102.4v-438.4c0-57.6 44.8-102.4 102.4-102.4h556.8c54.4 0 102.4 44.8 99.2 102.4v438.4c0 57.6-44.8 102.4-102.4 102.4zM348.8 694.4c0 89.6 73.6 163.2 163.2 163.2s163.2-73.6 163.2-163.2v-112c0 0 0-3.2 0-3.2h-326.4v115.2zM790.4 38.4h-556.8v438.4h556.8v-438.4z" />
<glyph unicode="&#xe911;" glyph-name="camera" d="M511.2 608c-112 0-201.6-92.8-201.6-204.8s92.8-201.6 204.8-201.6c112 0 201.6 92.8 201.6 201.6 0 115.2-92.8 204.8-204.8 204.8zM943.2 694.4h-144l-67.2 169.6h-432l-67.2-169.6h-22.4v83.2h-102.4v-83.2h-19.2c-44.8 0-83.2-35.2-83.2-80v-496c0-44.8 38.4-83.2 83.2-83.2h857.6c44.8 0 83.2 35.2 83.2 83.2v496c-6.4 41.6-41.6 80-86.4 80zM172 694.4h-35.2v51.2h35.2v-51.2zM511.2 102.4c-169.6 0-304 137.6-300.8 307.2s137.6 304 307.2 300.8c166.4 0 300.8-137.6 300.8-304 0-169.6-137.6-307.2-307.2-304zM888.8 489.6c-38.4 0-67.2 32-67.2 67.2s32 67.2 67.2 67.2c38.4 0 67.2-32 67.2-67.2s-32-67.2-67.2-67.2z" />
<glyph unicode="&#xe912;" glyph-name="login" d="M511.488 416.416c-150.4 0-272 121.6-272 272s121.6 272 272 272 272-121.6 272-272c0-150.4-121.6-272-272-272zM511.488 899.616c-115.2 0-211.2-96-211.2-211.2s96-211.2 211.2-211.2 211.2 96 211.2 211.2c0 118.4-96 211.2-211.2 211.2zM1023.488-63.584h-1024v156.8l3.2 6.4c6.4 9.6 128 259.2 508.8 259.2s505.6-246.4 508.8-259.2l3.2-6.4v-156.8zM60.288-2.784h902.4v83.2c-19.2 35.2-134.4 217.6-451.2 217.6s-432-182.4-451.2-217.6v-83.2z" />
<glyph unicode="&#xe913;" glyph-name="user" d="M512 873.6c-281.6 0-512-230.4-512-512 0-124.8 44.8-236.8 115.2-323.2 9.6 89.6 99.2 166.4 227.2 201.6 44.8-41.6 105.6-67.2 169.6-67.2s121.6 25.6 166.4 64c128-38.4 214.4-118.4 217.6-211.2 80 89.6 128 208 128 339.2 0 278.4-230.4 508.8-512 508.8zM512 230.4c-32 0-64 9.6-89.6 25.6-67.2 38.4-112 115.2-112 201.6 0 124.8 89.6 227.2 201.6 227.2s201.6-102.4 201.6-227.2c0-89.6-48-166.4-115.2-204.8-25.6-12.8-54.4-22.4-86.4-22.4z" />
<glyph unicode="&#xe914;" glyph-name="barcode" d="M169.6 857.6h-134.4c-19.2 0-35.2-16-35.2-35.2v-137.6c0-19.2 16-35.2 35.2-35.2s35.2 16 35.2 35.2v105.6h102.4c19.2 0 35.2 16 35.2 35.2s-19.2 32-38.4 32zM988.8 243.2c-19.2 0-35.2-16-35.2-35.2v-102.4h-102.4c-19.2 0-35.2-16-35.2-35.2s16-35.2 35.2-35.2h137.6c19.2 0 35.2 16 35.2 35.2v137.6c0 19.2-16 35.2-35.2 35.2zM988.8 857.6h-137.6c-19.2 0-35.2-16-35.2-35.2s16-35.2 35.2-35.2h102.4v-102.4c0-19.2 16-35.2 35.2-35.2s35.2 16 35.2 35.2v137.6c0 19.2-16 35.2-35.2 35.2zM169.6 105.6h-102.4v102.4c0 19.2-16 35.2-35.2 35.2s-32-16-32-35.2v-137.6c0-19.2 16-35.2 35.2-35.2h137.6c19.2 0 35.2 16 35.2 35.2s-19.2 35.2-38.4 35.2zM137.6 720h67.2v-547.2h-67.2v547.2zM272 720h67.2v-409.6h-67.2v409.6zM409.6 720h67.2v-409.6h-67.2v409.6zM547.2 720h67.2v-547.2h-67.2v547.2zM681.6 720h67.2v-409.6h-67.2v409.6zM819.2 720h67.2v-547.2h-67.2v547.2zM272 243.2h67.2v-67.2h-67.2v67.2zM409.6 243.2h67.2v-67.2h-67.2v67.2zM681.6 243.2h67.2v-67.2h-67.2v67.2z" />
<glyph unicode="&#xe915;" glyph-name="document-pdf" d="M665.6 960h-553.6v-1024h803.2v774.4l-249.6 249.6zM675.2 902.4l179.2-179.2h-179.2v179.2zM144-28.8v953.6h496v-240h240v-716.8h-736zM281.6 668.8h153.6c9.6 0 16 6.4 16 16s-6.4 16-16 16h-153.6c-9.6 3.2-16-3.2-16-12.8s6.4-19.2 16-19.2zM572.8 329.6h-291.2c-9.6 0-16-6.4-16-16s6.4-16 16-16h291.2c9.6 0 16 6.4 16 16 0 6.4-6.4 16-16 16zM742.4 448h-118.4c-9.6 0-16-6.4-16-16s6.4-16 16-16h118.4c9.6 0 16 6.4 16 16s-6.4 16-16 16zM281.6 534.4h86.4c9.6 0 16 6.4 16 16s-6.4 16-16 16h-86.4c-9.6 0-16-6.4-16-16s6.4-16 16-16zM537.6 534.4h118.4c9.6 0 16 6.4 16 16s-6.4 16-16 16h-118.4c-9.6 0-16-6.4-16-16s6.4-16 16-16zM435.2 550.4c0-3.2 3.2-9.6 6.4-12.8s6.4-6.4 12.8-6.4 9.6 3.2 12.8 6.4c3.2 3.2 6.4 6.4 6.4 12.8 0 3.2-3.2 9.6-6.4 12.8-6.4 6.4-19.2 6.4-25.6 0-3.2-3.2-6.4-9.6-6.4-12.8zM368 448c-9.6 0-16-6.4-16-16s6.4-16 16-16h169.6c9.6 0 16 6.4 16 16s-6.4 16-16 16h-169.6zM281.6 412.8c3.2 0 9.6 3.2 12.8 6.4s6.4 6.4 6.4 12.8c0 3.2-3.2 9.6-6.4 12.8-6.4 3.2-19.2 3.2-25.6-3.2-3.2-3.2-6.4-6.4-6.4-12.8 0-3.2 3.2-9.6 6.4-12.8 3.2 0 9.6-3.2 12.8-3.2zM742.4 208h-118.4c-9.6 0-16-6.4-16-16s6.4-16 16-16h118.4c9.6 0 16 6.4 16 16s-6.4 16-16 16zM537.6 208h-169.6c-9.6 0-16-6.4-16-16s6.4-16 16-16h169.6c9.6 0 16 6.4 16 16s-6.4 16-16 16zM268.8 204.8c-3.2-3.2-6.4-6.4-6.4-12.8 0-3.2 3.2-9.6 6.4-12.8s6.4-6.4 12.8-6.4c3.2 0 9.6 3.2 12.8 6.4s6.4 6.4 6.4 12.8c0 3.2-3.2 9.6-6.4 12.8-6.4 6.4-19.2 6.4-25.6 0zM729.6 563.2c-3.2-3.2-6.4-6.4-6.4-12.8 0-3.2 3.2-9.6 6.4-12.8s6.4-6.4 12.8-6.4c3.2 0 9.6 3.2 12.8 6.4s6.4 6.4 6.4 12.8c0 3.2-3.2 9.6-6.4 12.8-6.4 6.4-19.2 6.4-25.6 0zM668.8 300.8c3.2 3.2 6.4 6.4 6.4 12.8 0 3.2-3.2 9.6-6.4 12.8-6.4 6.4-19.2 6.4-25.6 0 0-6.4-3.2-9.6-3.2-16 0-3.2 3.2-9.6 6.4-12.8s6.4-6.4 12.8-6.4c3.2 3.2 6.4 6.4 9.6 9.6zM729.6 323.2c-3.2-3.2-6.4-6.4-6.4-12.8 0-3.2 3.2-9.6 6.4-12.8s6.4-6.4 12.8-6.4c3.2 0 9.6 3.2 12.8 6.4s6.4 6.4 6.4 12.8c0 3.2-3.2 9.6-6.4 12.8-6.4 6.4-19.2 6.4-25.6 0z" />
</font>
</defs>
</svg>
